/* XPM */
static char * battery_idle_0_xpm[] = {
"24 16 2 1",
" 	c None",
".	c #FFFFFF",
"                        ",
" ....................   ",
" .                  .   ",
" .                  .   ",
" .                  ... ",
" .                    . ",
" .                    . ",
" .                    . ",
" .                    . ",
" .                    . ",
" .                    . ",
" .                  ... ",
" .                  .   ",
" .                  .   ",
" ....................   ",
"                        "};
