/* XPM */
static char * battery_off_2_xpm[] = {
"24 16 3 1",
" 	c None",
".	c #FFFFFF",
"+	c #A54242",
"                        ",
" ....................   ",
" .                  .   ",
" . ++++             .   ",
" . ++++             ... ",
" . ++++               . ",
" . ++++               . ",
" . ++++               . ",
" . ++++               . ",
" . ++++               . ",
" . ++++               . ",
" . ++++             ... ",
" . ++++             .   ",
" .                  .   ",
" ....................   ",
"                        "};
