/* XPM */
static char * mirror_xpm[] = {
"14 14 2 1",
" 	c None",
".	c #FFFFFF",
"              ",
" ............ ",
" .    ..    . ",
" .    ..    . ",
" .    ..    . ",
" .    ..    . ",
" .......    . ",
" .......    . ",
" .    ..    . ",
" .    ..    . ",
" .    ..    . ",
" .    ..    . ",
" ............ ",
"              "};
