/* XPM */
static char * ram_0_xpm[] = {
"24 16 2 1",
" 	c None",
".	c #FFFFFF",
"                        ",
"  ....................  ",
" .                    . ",
" .                    . ",
" .                   .. ",
" .  ... ... ... ... .   ",
" .  . . . . . . . . .   ",
" .  ... ... ... ... .   ",
" .                   .. ",
" .                    . ",
" .                    . ",
" .            ..      . ",
" . . . . . . .  . . . . ",
" . . . . . . .  . . . . ",
" .............  ....... ",
"                        "};
