/* XPM */
static char * temperature_0_xpm[] = {
"12 16 2 1",
" 	c None",
".	c #FFFFFF",
"            ",
"    .....   ",
" ....   .   ",
"    .   .   ",
" ....   .   ",
"    .   .   ",
" ....   .   ",
"    .   .   ",
"    .   .   ",
"   ..   ..  ",
"  ..     .. ",
"  .       . ",
"  .       . ",
"  ..     .. ",
"   .......  ",
"            "};
